# xmcd
#
# Track frame offsets:
#	150
#	17503
#	31413
#	48442
#	63372
#	82126
#	98114
#	114290
#	128714
#	145344
#	164818
#	183600
#	203936
#	225028
#	240758
#	254110
#	271365
#	285117
#	306589
#
# Disc length: 4270 seconds
#
# Revision: 1
# Processed by: cddbd v1.5.2PL0 Copyright (c) Steve Scherf et al.
# Submitted via: audiograbber 1.83.01
#
DISCID=0810ac13
DTITLE=Various Artist - Hott Country 130
DYEAR=2006
DGENRE=Country
TTITLE0=Rockie Lynne - More
TTITLE1=Adam Gregory - Don't Send The Invitation
TTITLE2=Keith Urban - Stupid Boy
TTITLE3=Damian Marshall - Built To Last
TTITLE4=Sara Evans - Missing Missouri
TTITLE5=Kenny Chesney and Reba McEntire - I Was Country When Country Wasn't Cool
TTITLE6=Chris Cummings - For The Music
TTITLE7=Jimmy Buffet - Bama Breeze
TTITLE8=Dierks Bentley - Long Trip Alone
TTITLE9=Jason Michael Carroll - Alyssa Lies
TTITLE10=Alan Jackson - A Woman's Love
TTITLE11=Dixie Chicks - The Long Way Around
TTITLE12=Martina McBride - Anyway
TTITLE13=Gary Allan - A Feelin' Like That
TTITLE14=Josh Turner - Me And God
TTITLE15=Randy Owens - Years
TTITLE16=Miranda Lambert - Crazy Ex-Girlfriend
TTITLE17=Brad Paisley - Born On Christmas Day
TTITLE18=Dolly Parton - I Will Always Love You
EXTD=December 2006
EXTT0=
EXTT1=
EXTT2=
EXTT3=
EXTT4=
EXTT5=
EXTT6=
EXTT7=
EXTT8=
EXTT9=
EXTT10=
EXTT11=
EXTT12=
EXTT13=
EXTT14=
EXTT15=
EXTT16=
EXTT17=
EXTT18=
PLAYORDER=
